<?xml version="1.0" standalone="no"?>
<!DOCTYPE svg PUBLIC "-//W3C//DTD SVG 20010904//EN"
 "http://www.w3.org/TR/2001/REC-SVG-20010904/DTD/svg10.dtd">
<svg version="1.0" xmlns="http://www.w3.org/2000/svg"
 width="1582.000000pt" height="460.000000pt" viewBox="0 0 1582.000000 460.000000"
 preserveAspectRatio="xMidYMid meet">

<g transform="translate(0.000000,460.000000) scale(0.100000,-0.100000)"
fill="#000000" stroke="none">
<path d="M2065 4158 c-39 -21 -65 -52 -71 -84 -6 -32 -8 -33 -63 -39 -318 -34
-625 -157 -878 -351 l-81 -62 -41 20 c-52 26 -99 18 -140 -23 -41 -41 -49 -88
-23 -141 l21 -41 -38 -46 c-115 -138 -235 -358 -295 -543 -34 -103 -67 -256
-81 -370 -6 -53 -9 -58 -31 -58 -14 0 -40 -15 -62 -34 -33 -31 -37 -39 -37
-84 0 -63 26 -101 83 -122 40 -14 41 -15 47 -70 37 -320 166 -636 365 -892
l48 -62 -20 -38 c-27 -51 -18 -100 27 -145 27 -27 41 -33 74 -33 23 0 55 7 72
16 30 15 31 15 102 -39 268 -200 538 -312 843 -350 92 -12 98 -14 104 -38 12
-44 30 -68 60 -84 37 -19 93 -19 129 0 28 14 61 68 61 99 0 12 10 16 34 16 72
0 275 42 390 81 197 65 399 175 539 291 l47 40 34 -16 c62 -29 135 -14 170 36
21 29 20 103 0 138 -16 27 -16 28 31 86 176 215 310 521 351 804 22 146 23
150 35 150 6 0 27 8 46 17 50 23 78 87 63 142 -12 45 -60 91 -96 91 -27 0 -27
0 -44 133 -33 262 -154 555 -321 781 -76 102 -79 108 -64 129 8 12 15 43 15
69 0 95 -94 154 -177 111 l-38 -20 -82 63 c-252 193 -547 310 -875 349 -45 5
-58 10 -58 23 0 28 -37 80 -69 97 -35 18 -78 19 -106 3z m345 -393 c299 -66
548 -202 760 -415 217 -216 347 -456 411 -760 30 -139 32 -416 6 -560 -114
-612 -595 -1091 -1212 -1206 -138 -26 -382 -26 -520 0 -309 57 -580 199 -795
416 -214 215 -345 454 -412 751 -20 90 -23 131 -23 304 0 219 9 284 67 465
107 337 349 638 661 825 149 89 339 158 522 190 109 19 431 13 535 -10z"/>
<path d="M1889 3524 c-42 -7 -121 -28 -175 -47 l-99 -33 0 -644 0 -645 143 -3
c78 -1 142 -5 142 -7 0 -3 -20 -56 -45 -117 -25 -62 -45 -116 -45 -120 0 -4
58 -8 128 -8 l128 0 48 125 49 125 197 0 198 0 48 -122 49 -123 123 -3 c67 -1
122 1 122 5 0 4 -90 229 -198 498 l-198 490 -150 0 -149 0 -100 -248 -100
-248 -70 3 -70 3 0 429 0 430 30 8 c63 17 222 26 314 17 435 -40 793 -364 883
-798 28 -135 21 -327 -16 -456 -112 -382 -411 -653 -795 -720 -201 -35 -429
-2 -608 89 -29 14 -55 26 -58 26 -3 0 -5 -61 -5 -136 l0 -135 43 -19 c142 -63
347 -96 526 -86 577 32 1035 428 1159 1000 24 114 23 379 -2 496 -107 500
-508 889 -1005 975 -104 19 -339 18 -442 -1z m521 -994 c23 -58 44 -111 47
-117 4 -10 -18 -13 -91 -13 -53 0 -96 4 -96 8 0 4 16 48 35 98 50 124 55 137
59 133 3 -2 23 -51 46 -109z"/>
<path d="M1423 3232 c-547 -408 -631 -1180 -185 -1699 59 -68 187 -178 251
-216 l31 -18 0 34 c0 31 -7 40 -74 91 -359 275 -514 740 -391 1171 30 106 87
230 146 317 53 79 196 227 266 275 46 32 53 41 53 70 0 18 -4 33 -9 33 -5 0
-45 -26 -88 -58z"/>
<path d="M4370 2930 l0 -620 425 0 425 0 0 110 0 110 -300 0 -300 0 0 510 0
510 -125 0 -125 0 0 -620z"/>
<path d="M5558 2948 c-136 -332 -250 -611 -254 -620 -6 -17 4 -18 124 -18
l130 0 52 133 c29 72 58 138 63 145 7 9 71 12 257 12 186 0 250 -3 257 -12 5
-7 34 -73 63 -145 l52 -133 133 0 133 0 -88 218 c-49 119 -162 398 -252 619
l-163 403 -130 0 -130 0 -247 -602z m385 255 c3 -10 39 -100 80 -200 l75 -183
-168 0 -169 0 82 200 c44 110 84 200 88 200 4 0 9 -8 12 -17z"/>
<path d="M7007 3543 c-4 -3 -7 -282 -7 -620 l0 -613 293 0 c330 0 374 6 491
68 186 97 296 300 296 547 0 319 -184 560 -465 610 -83 15 -595 22 -608 8z
m597 -239 c67 -26 149 -103 181 -170 79 -167 45 -406 -74 -517 -76 -71 -133
-87 -311 -87 l-150 0 0 393 c0 217 3 397 8 401 4 5 72 6 152 3 109 -3 157 -9
194 -23z"/>
<path d="M8220 2930 l0 -620 120 0 120 0 2 193 3 192 130 3 c72 1 135 -1 141
-5 6 -5 54 -85 108 -179 53 -95 102 -179 109 -188 10 -14 31 -16 149 -14 l136
3 -127 215 -128 215 47 32 c178 120 236 344 139 535 -31 61 -121 151 -182 181
-95 48 -164 57 -479 57 l-288 0 0 -620z m588 385 c28 -9 65 -28 83 -42 91 -77
90 -237 -2 -305 -64 -47 -94 -53 -264 -53 l-160 0 -3 195 c-1 107 0 200 2 207
8 20 276 18 344 -2z"/>
<path d="M9330 3133 c0 -453 4 -492 56 -595 36 -71 126 -158 198 -192 81 -38
201 -59 296 -51 226 20 381 146 435 352 12 46 15 138 15 480 l0 424 -122 -3
-123 -3 -5 -425 c-5 -420 -5 -426 -28 -472 -43 -88 -115 -130 -222 -130 -110
0 -181 42 -224 132 -20 43 -21 62 -26 470 l-5 425 -122 3 -123 3 0 -418z"/>
<path d="M10510 2930 l0 -620 125 0 126 0 -3 394 c-2 217 0 392 4 390 3 -2 86
-117 183 -254 l177 -250 43 0 43 0 177 250 c97 137 180 252 183 254 4 2 6
-173 4 -390 l-3 -394 126 0 125 0 0 620 0 621 -112 -3 -111 -3 -208 -295
c-115 -162 -213 -295 -218 -295 -5 0 -103 131 -217 290 -114 160 -212 293
-218 297 -6 4 -59 8 -118 8 l-108 0 0 -620z"/>
<path d="M12020 2930 l0 -620 120 0 120 0 2 395 3 396 180 -256 180 -255 45 2
45 3 180 253 180 253 3 -396 2 -395 125 0 125 0 0 620 0 620 -113 0 -113 0
-210 -299 c-115 -165 -213 -299 -219 -297 -5 1 -105 135 -220 297 l-210 294
-113 3 -112 3 0 -621z"/>
<path d="M13520 2930 l0 -620 465 0 466 0 -3 108 -3 107 -337 3 -338 2 0 135
0 135 280 0 280 0 0 110 0 110 -280 0 -280 0 0 155 0 155 325 0 325 0 0 110 0
110 -450 0 -450 0 0 -620z"/>
<path d="M14567 3543 c-4 -3 -7 -282 -7 -620 l0 -613 125 0 125 0 0 195 0 196
138 -3 137 -3 110 -192 110 -193 142 0 142 0 -105 178 c-58 97 -117 195 -130
218 l-24 41 50 32 c61 40 111 99 147 177 25 53 28 70 28 169 0 104 -2 114 -32
176 -38 77 -115 154 -193 194 -93 47 -158 55 -471 55 -157 0 -289 -3 -292 -7z
m592 -229 c71 -21 124 -75 141 -142 23 -98 -17 -184 -107 -229 -54 -26 -66
-28 -220 -31 l-163 -4 0 211 0 211 148 0 c105 0 164 -5 201 -16z"/>
<path d="M4360 1630 l0 -320 176 0 c163 0 179 2 216 22 54 31 81 77 81 142 0
28 -7 66 -16 83 -19 36 -62 73 -86 73 -11 0 -5 9 17 26 44 35 62 73 62 135 0
66 -27 111 -84 138 -37 19 -61 21 -204 21 l-162 0 0 -320z m341 222 c22 -25
29 -42 29 -75 0 -87 -50 -117 -195 -117 l-95 0 0 116 0 116 116 -4 116 -3 29
-33z m-6 -264 c34 -15 55 -57 55 -109 0 -33 -6 -47 -34 -75 l-34 -34 -121 0
-121 0 0 115 0 115 115 0 c67 0 125 -5 140 -12z"/>
<path d="M6730 1930 c-22 -22 -25 -42 -10 -71 22 -39 100 -15 100 32 0 23 -34
59 -55 59 -8 0 -24 -9 -35 -20z"/>
<path d="M6318 1879 c-5 -72 -21 -89 -81 -89 -36 0 -38 -2 -35 -27 3 -26 7
-28 55 -31 l51 -3 4 -177 c3 -192 10 -216 64 -240 24 -12 156 -17 166 -7 2 3
3 18 0 33 -4 28 -5 28 -60 24 -49 -3 -60 -1 -77 18 -18 20 -20 39 -23 186 l-3
164 80 0 81 0 0 30 0 29 -77 3 -78 3 -3 73 c-3 72 -3 72 -31 72 -28 0 -29 -2
-33 -61z"/>
<path d="M5652 1607 l3 -194 28 -36 c34 -45 73 -66 135 -74 93 -11 170 28 203
101 16 35 19 67 19 219 l0 177 -35 0 -35 0 0 -165 c0 -187 -8 -222 -62 -255
-42 -25 -84 -25 -125 0 -57 34 -63 60 -63 250 l0 170 -36 0 -35 0 3 -193z"/>
<path d="M5105 1766 c-27 -13 -60 -34 -72 -47 -48 -53 -71 -149 -53 -233 24
-117 113 -186 240 -186 80 0 132 22 182 78 41 46 58 94 58 167 0 73 -17 121
-58 167 -50 56 -102 78 -182 78 -48 0 -78 -6 -115 -24z m203 -63 c154 -114 64
-372 -117 -338 -120 22 -178 157 -118 275 41 84 164 116 235 63z"/>
<path d="M6730 1550 l0 -240 35 0 35 0 0 240 0 240 -35 0 -35 0 0 -240z"/>
<path d="M7080 1768 c-146 -74 -171 -306 -45 -417 78 -68 225 -69 290 -1 16
16 31 30 34 30 3 0 5 -56 3 -125 l-4 -125 41 0 41 0 0 330 0 330 -35 0 c-34 0
-35 -1 -35 -42 l0 -42 -27 27 c-64 60 -181 76 -263 35z m216 -73 c50 -38 67
-84 62 -167 -4 -80 -24 -112 -89 -146 -75 -40 -170 -13 -214 60 -30 50 -28
160 4 212 49 78 162 98 237 41z"/>
<path d="M7610 1623 c1 -220 16 -263 105 -304 100 -46 219 -12 265 76 23 46
25 61 28 222 l4 173 -41 0 -41 0 0 -170 c0 -189 -7 -218 -60 -245 -43 -22
-102 -19 -135 7 -47 37 -55 72 -55 248 l0 160 -35 0 -35 0 0 -167z"/>
<path d="M8290 1777 c-144 -46 -189 -296 -73 -409 77 -75 205 -91 311 -37 64
32 71 42 48 72 -14 18 -16 17 -56 -9 -32 -21 -58 -29 -104 -32 -101 -7 -169
40 -183 124 l-6 34 187 0 186 0 0 48 c0 141 -80 223 -215 221 -33 -1 -76 -6
-95 -12z m177 -64 c30 -20 52 -61 55 -105 l3 -33 -147 -3 -148 -3 0 26 c0 55
55 121 112 135 41 11 94 3 125 -17z"/>
</g>
</svg>
